<svg xmlns="http://www.w3.org/2000/svg" viewBox="0 0 16 16" fill="#000000" id="Git-Pull-Request-Light--Streamline-Phosphor" height="16" width="16">
  <desc>
    Git Pull Request Light Streamline Icon: https://streamlinehq.com
  </desc>
  <path d="M5.1645875 2.66145C5.16419375 0.7355 3.07905 -0.4677875 1.411325 0.495525c-1.66771875 0.9633125 -1.66723125 3.37074375 0.0008875 4.33338125 0.2331125 0.134525 0.4864125 0.23055625 0.75011875 0.28438125v5.771C0.2753 11.26948125 -0.48711875 13.553 0.78998125 14.994625c1.2771 1.441625 3.63589375 0.9601375 4.24583125 -0.866675 0.47548125 -1.4241125 -0.40166875 -2.94338125 -1.87273125 -3.2436625v-5.771c1.16415625 -0.239275 2.0001375 -1.26335 2.00150625 -2.4518375Zm-4.00300625 0c0 -1.15556875 1.2509375 -1.8778 2.25169375 -1.30001875 1.00075 0.5777875 1.00075 2.02225 0 2.60003125 -0.228225 0.1317625 -0.48704375 0.201125 -0.75056875 0.2011125 -0.82901875 -0.0000375 -1.501125 -0.67210625 -1.501125 -1.501125Zm3.00225625 10.67468125c0 1.15556875 -1.2509375 1.8778 -2.25169375 1.3000125 -1.00075 -0.57778125 -1.00075 -2.02224375 0 -2.600025 0.2282 -0.13175625 0.4870625 -0.2011125 0.7505625 -0.2011125 0.82905 0 1.50113125 0.672075 1.50113125 1.501125Zm9.67393125 -2.45184375v-4.3365875c0.00126875 -0.486875 -0.19209375 -0.95406875 -0.537075 -1.29764375l-3.42590625 -3.42256875h2.7954375c0.3851875 0 0.62593125 -0.41698125 0.4333375 -0.7505625 -0.08938125 -0.1548125 -0.25458125 -0.25018125 -0.4333375 -0.2501875h-4.00300625c-0.2763625 -0.0000125 -0.500375 0.22401875 -0.500375 0.500375v4.00300625c0 0.3851875 0.416975 0.62593125 0.7505625 0.4333375 0.1548125 -0.08938125 0.2501875 -0.25456875 0.2501875 -0.4333375V2.5346875l3.42506875 3.42590625c0.15711875 0.1558875 0.2451375 0.36828125 0.24435 0.58960625v4.33659375c-1.88703125 0.3851875 -2.64945 2.66870625 -1.37235 4.11033125 1.2771 1.441625 3.63589375 0.9601375 4.24583125 -0.866675 0.47548125 -1.4241125 -0.40166875 -2.94338125 -1.872725 -3.24365625Zm-0.500375 3.95296875c-1.15556875 -0.00005 -1.8778125 -1.251025 -1.29998125 -2.25175 0.577825 -1.000725 2.0222875 -1.00065625 2.600025 0.00011875 0.13173125 0.2281875 0.20108125 0.487025 0.20108125 0.75050625 0 0.829075 -0.67205 1.5011625 -1.501125 1.501125Z" stroke-width="0.0625"></path>
</svg>